<svg width="31" height="29" viewBox="0 0 31 29" fill="none" xmlns="http://www.w3.org/2000/svg">
<path d="M29.8126 13.4904L18.1193 1.9321C16.4233 0.256357 13.6648 0.256357 11.9688 1.9321L0.275467 13.4904C-0.0918223 13.8534 -0.0918223 14.4418 0.275467 14.8048C0.642168 15.1679 1.23806 15.1679 1.60476 14.8048L2.3505 14.0677V25.8822C2.3505 27.3578 3.56079 28.5541 5.05375 28.5541H9.75505C10.0796 28.5541 10.3427 28.294 10.3427 27.9732V19.3767C10.3427 17.7727 11.6583 16.4725 13.281 16.4725H16.807C18.4298 16.4725 19.7453 17.7727 19.7453 19.3767V27.9732C19.7453 28.294 20.0084 28.5541 20.333 28.5541H25.0343C26.5272 28.5541 27.7375 27.3578 27.7375 25.8822V14.0677L28.4833 14.8048C28.6666 14.9861 28.9076 15.0773 29.1479 15.0773C29.3883 15.0773 29.6292 14.9861 29.8126 14.8048C30.1798 14.4418 30.1798 13.8534 29.8126 13.4904Z" fill="#A4B9CB"/>
</svg>
